<svg xmlns="http://www.w3.org/2000/svg" width="13.291" height="13.293" viewBox="0 0 13.291 13.293">
  <path id="external-link-alt-solid" d="M11.216,8.308h-.831a.415.415,0,0,0-.415.415v2.908H1.662V3.323H5.4a.415.415,0,0,0,.415-.415V2.077A.415.415,0,0,0,5.4,1.662H1.246A1.246,1.246,0,0,0,0,2.908v9.139a1.246,1.246,0,0,0,1.246,1.246h9.139a1.246,1.246,0,0,0,1.246-1.246V8.723A.415.415,0,0,0,11.216,8.308ZM12.67,0H9.346A.624.624,0,0,0,8.9,1.064l.928.928L3.5,8.318a.623.623,0,0,0,0,.883l.589.588a.623.623,0,0,0,.883,0L11.3,3.461l.927.926a.624.624,0,0,0,1.064-.441V.623A.623.623,0,0,0,12.67,0Z" fill="#fff"/>
</svg>
