<svg xmlns="http://www.w3.org/2000/svg" width="524" height="55.13" viewBox="0 0 524 55.13">
  <g id="header-text" transform="translate(0)">
    <path id="パス_115" data-name="パス 115" d="M30.291,8.162c2.335-.641,4.084-.351,5.251.524,1.167.934,1.751,2.51,1.811,4.61C37.644,24.9,23.76,40.594,10.4,40.479,5.793,40.421.542,37.621.018,28.579-.683,15.978,18.742,1.686,30,.11,32.744-.3,35.66,3.843,35.66,4.777,35.66,6,33.676,6.526,32.8,6.816A17.271,17.271,0,0,0,30.236,8.1ZM13.2,21.342c-.759,0-.759-1.107-.817-1.631C9.117,22.978,5.91,27.645,5.91,32.427c0,2.039.874,3.793,3.089,3.793,3.269,0,8.342-2.453,10.795-4.549C27.611,25.022,32.045,17.9,32.218,13.646a2.509,2.509,0,0,0-2.275-2.858c-5.133,0-12.19,4.843-14.934,8.984C14.659,20.234,13.9,21.342,13.2,21.342Z" transform="translate(0 0.123)" fill="#e8bc27"/>
    <path id="パス_116" data-name="パス 116" d="M20.045,16.925c-2.039,3.207-4.492,4.725-7,7.235l-.235-2.568a20.444,20.444,0,0,0,3.851-4.256c-1.225-.118-1.576-.584-1.576-1.809,0-4.2,5.95-8.4,7.353-8.4a1.037,1.037,0,0,1,1.05.992,3.971,3.971,0,0,1-.408,1.631c5.481-.759,8.693-1.458,9.274-.759a5.82,5.82,0,0,1,1.4,3.091c0,1.809-1.107,2.683-2.45,3.793-1.694,1.458-4.549,4.316-4.549,6.649a1.789,1.789,0,0,0,1.809,1.633c2.51,0,6.185-3.793,8.109-5.251l.406,2.157c-2.217,2.508-8.926,8.984-12.251,8.984-2.45,0-3.966-2.275-3.966-4.492,0-3.968,3.034-7.057,5.369-9.861l-.118-.115Z" transform="translate(19.282 10.725)" fill="#e8bc27"/>
    <path id="パス_117" data-name="パス 117" d="M39.075,25.505c-2.625,3.209-7.759,8.46-12.19,8.46-3.442,0-5.018-3.968-5.018-6.942,0-7.117,7.293-14.057,10.792-14.057.992,0,2.565.351,2.565,1.633,0,2.916-5.775,8.107-8.225,9.8-.466,2.392.408,3.675,3.091,3.675,3.091,0,6.125-3.089,8.458-4.782Zm-5.6-16.216c0-2.392,2.8-4.492,5.073-4.492a1.845,1.845,0,0,1,1.927,1.809c0,2.335-2.157,5.191-4.665,5.191A2.349,2.349,0,0,1,33.474,9.289Z" transform="translate(32.915 7.221)" fill="#e8bc27"/>
    <path id="パス_118" data-name="パス 118" d="M44.564,20.852l-.115-.118c-2.1,2.335-8.225,7.641-11.434,7.641-3.267,0-4.374-4.256-4.374-6.824,0-7.643,12.716-13.826,17.208-14.235.817-.058,3.091.173,3.091,1.458,0,1.05-1.167,1.866-1.927,2.392l-6.649,3.615c-3.678,1.984-7.992,3.615-7.466,7.876.055.468.406.581.932.581,1.633.175,5.191-1.223,7.408-3.615L47.48,12.74c.584-.641,1.285-1.631,2.22-1.631,1.165,0,2.217,1.982,2.217,2.976a8.27,8.27,0,0,1-1.225,2.976l-4.374,8.167.115.118L55.3,18.988l.291,2.45L43.283,30.654C37.158,40.4,32.025,44.13,29.75,44.13a1.332,1.332,0,0,1-1.34-1.4c0-4.2,8.866-11.549,12.073-13.884Z" transform="translate(42.764 11)" fill="#e8bc27"/>
    <path id="パス_119" data-name="パス 119" d="M55.86,25.505c-2.625,3.209-7.759,8.46-12.19,8.46-3.442,0-5.018-3.968-5.018-6.942,0-7.117,7.293-14.057,10.792-14.057.992,0,2.565.351,2.565,1.633,0,2.916-5.775,8.107-8.225,9.8-.466,2.392.408,3.675,3.091,3.675,3.091,0,6.125-3.089,8.458-4.782Zm-5.6-16.216c0-2.392,2.8-4.492,5.073-4.492a1.845,1.845,0,0,1,1.927,1.809c0,2.335-2.157,5.191-4.665,5.191A2.348,2.348,0,0,1,50.261,9.289Z" transform="translate(58.18 7.221)" fill="#e8bc27"/>
    <path id="パス_120" data-name="パス 120" d="M73.222,17.613l.468,2.565C70.6,22.921,64.589,30.1,60.33,30.1c-2.217,0-3.267-1.869-3.267-3.851,0-3.5,3.152-7.35,5.018-10.033l-.118-.118a46.421,46.421,0,0,0-8.984,8.926c-.877,1.107-3.034,3.966-4.61,3.966-2.565,0-3.207-3.675-3.267-5.657-.173-4.026,3.5-9.918,6.884-12.777a2.9,2.9,0,0,1,2.275-.7c3.5.115,3.207.932,3.207,1.283,0,2.275-7.35,8.167-7.35,9.567a.646.646,0,0,0,.641.641c.408,0,.934-.526,1.167-.817C56.592,14.579,67.327,7.4,69.018,7.4c.235,0,.584.293.934,1.107a13.6,13.6,0,0,1,.874,3.152c0,2.275-7.175,6.709-7.175,10.732a1.085,1.085,0,0,0,1.052,1.05c1.4,0,3.966-2.039,5.015-2.916Z" transform="translate(67.882 11.145)" fill="#e8bc27"/>
    <path id="パス_121" data-name="パス 121" d="M66.733,25.267c-1.107.874-4.843,3.908-6.185,3.908-1.633,0-5.015-3.851-5.133-6.882C55.179,15,70.348,7.533,77.115,7.36a3.585,3.585,0,0,1,3.793,2.8c0,.7-1.516,1.285-2.042,1.458a2.34,2.34,0,0,1,1.694,2.392c0,1.866-5.076,5.95-5.076,8.693,0,.992.877,1.4,1.809,1.4,2.453,0,5.777-2.976,8.285-4.667l.468,2.157c-2.508,2.861-10.327,9.1-13.185,9.1-1.927,0-2.8-1.4-2.8-3.091,0-1.866,1.4-4.958,2.157-6.531l-.118-.118Zm-7.06-1.518c.058.291.293,1.34,1.167,1.167,1.167-.235,2.976-.058,14.525-11.727l-.115-.115C61.367,17.333,59.674,20.89,59.674,23.749Z" transform="translate(83.408 11.076)" fill="#e8bc27"/>
    <path id="パス_122" data-name="パス 122" d="M86.232,29.185C83.026,32.509,77.542,38.4,72.524,38.4c-4.259,0-5.191-4.139-5.191-7.581a28.933,28.933,0,0,1,6.418-17.384C78.885,7.079,84.426,1.655,86.292,1.655c.992,0,1.225,1.4,1.167,2.157-.408,5.542-1.926,10.675-14.583,22.925a6.544,6.544,0,0,0-.408,4.023c.526,1.34,1.343,2.508,2.916,2.508,3.209,0,7.7-3.733,10.033-5.832ZM74.16,21.366c4.141-3.851,7.759-9.45,8.808-12.777-2.858,1.4-6.183,6.649-8.926,12.659Z" transform="translate(101.351 2.491)" fill="#e8bc27"/>
    <path id="パス_123" data-name="パス 123" d="M103.754,31.558l-6.068,7.117C96.988,39.668,95.7,42,94.3,42a2.943,2.943,0,0,1-2.858-2.508c0-1.631,4.141-5.659,4.958-7.233-4.083.351-5.95-.408-5.95-2.392,0-1.34,1.694-4.434,3.269-4.434.408,0,.874.408,1.34.408.641,0,.7-.408,9.565-2.1,2.217-2.157,6.418-6.709,11.549-12.541.759-.817,2.453-2.858,2.453-4.023,0-1.05-1.343-1.285-2.042-1.285-3.089,0-10.442,2.157-20.007,6.125.408.173.817.351.817.874,0,.817-.759,1.167-1.458,1.4-4.377,1.516-3.968,1.573-7.992,3.615a5.57,5.57,0,0,1-2.335.817c-1.34,0-1.749-1.633-1.749-2.683a13.993,13.993,0,0,1,1.984-6.418c2.1-2.39,11.842-5.6,15.167-6.649A64.611,64.611,0,0,1,118.222,0c4.843,0,6.3,2.858,6.3,5.717,0,3.615-3.5,7.117-5.832,9.625l-6.594,7,8.984-1.05L131.64,8.049c.7-.932,3.152-4.2,4.374-4.2.759,0,.992.7.992,1.34,0,1.866-.408,2.976-4.785,8.342l-6.3,7.759c2.683.058,5.544,0,7.934,1.458a29.869,29.869,0,0,0-7,7.816,19.017,19.017,0,0,0-5.95-.408c-.877,1.516-3.034,4.259-3.034,6.008a19.322,19.322,0,0,0,.641,3.5c-1.866-.408-4.843,2.45-6.358,1.927-.992-.351-1.34-1.167-1.05-2.919s1.225-4.434,3.385-8.515Z" transform="translate(126.233)" fill="#e8bc27"/>
    <path id="パス_124" data-name="パス 124" d="M127.57,20.625c-2.625,3.327-5.191,4.727-9.447,4.727-2.453,2.508-5.309,4.374-8.984,4.374-3.034,0-5.835-3.034-6.068-8.342-.118-4.374,2.039-7.29,5.309-9.8a19.782,19.782,0,0,1,10.908-4.319c1.285-.058,3.209.526,3.209,2.1,0,.874-.7,1.223-1.343,1.573,1.751.468,2.1,1.694,2.1,3.442,0,2.565-1.167,4.61-2.275,6.884,2.565.466,4.2-1.751,6.008-3.091Zm-17.79-2.741a8.55,8.55,0,0,0-2.392,5.366c0,1.694,1.107,2.217,2.565,2.217,1.927,0,3.152-1.107,4.492-2.332a6.34,6.34,0,0,1-.7-2.683c0-3.034,2.743-6.709,2.51-6.827C114.273,14.793,111.529,16.191,109.781,17.884Z" transform="translate(155.139 10.933)" fill="#e8bc27"/>
    <path id="パス_125" data-name="パス 125" d="M140.362,17.613l.468,2.565c-3.091,2.743-9.1,9.918-13.36,9.918-2.217,0-3.267-1.869-3.267-3.851,0-3.5,3.152-7.35,5.018-10.033l-.118-.118a46.422,46.422,0,0,0-8.984,8.926c-.877,1.107-3.034,3.966-4.61,3.966-2.565,0-3.207-3.675-3.267-5.657-.173-4.026,3.5-9.918,6.884-12.777a2.9,2.9,0,0,1,2.275-.7c3.5.115,3.207.932,3.207,1.283,0,2.275-7.35,8.167-7.35,9.567a.646.646,0,0,0,.641.641c.408,0,.934-.526,1.167-.817,4.665-5.95,15.4-13.125,17.091-13.125.236,0,.584.293.934,1.107a13.6,13.6,0,0,1,.874,3.152c0,2.275-7.175,6.709-7.175,10.732a1.085,1.085,0,0,0,1.052,1.05c1.4,0,3.966-2.039,5.015-2.916Z" transform="translate(168.943 11.145)" fill="#e8bc27"/>
    <path id="パス_126" data-name="パス 126" d="M145.2,20.681c-3.557,4.141-9.973,9.628-15.75,9.628-4.256,0-6.24-3.793-6.358-7.643-.233-7.643,8.225-15.46,15.81-15.4,1.866,0,4.2.468,4.2,2.8,0,2.858-2.861,7.172-14.059,10.85L128.93,22.2c-.175,2.217,1.749,2.976,3.615,2.976,4.141,0,9.041-4.256,12.133-6.709Zm-7.235-9.392c0-.406-.291-.759-.7-.641a12.825,12.825,0,0,0-7.876,7.408C134.527,16.307,138.024,12.283,137.966,11.289Z" transform="translate(185.275 10.935)" fill="#e8bc27"/>
    <path id="パス_127" data-name="パス 127" d="M141.4,39.16c-.581.641-2.217,2.916-3.149,2.916-1.225,0-1.751-2.858-1.751-3.848,0-.934,1.11-2.743,1.576-3.5l7.816-13.185-.115-.115c-4.785,4.023-9.041,7.172-9.743,7.115-1.633-.115-4.434-2.565-4.61-6.882-.233-7,9.743-14.408,11.376-14.465.874,0,2.508,1.866,2.508,2.681,0,2.22-6.591,8.285-8.515,9.8a6.319,6.319,0,0,0-1.107,3.385c3.089-.351,5.892-2.858,8.34-5.133,6.008-5.542,9.743-9.565,10.85-9.743.992-.173,1.576,2.1,1.576,2.916,0,1.516-1.576,3.911-2.392,5.133l-8.63,12.834.115.118L158.5,17.7l.466,2.157Z" transform="translate(197.82 10.832)" fill="#e8bc27"/>
    <path id="パス_128" data-name="パス 128" d="M186.46,28.875c0,3.324-7.175,11.2-22.868,12.073-4.2.235-10.033-1.167-10.033-6.473,0-1.866-.291-2.16,6.474-11.086-1.631-.115-5.366-.291-5.366-2.275,0-2.508,8.167-2.625,9.916-3.149,3.793-3.675,7.643-8.575,13.476-8.575-.408.992-.817,1.749-5.659,7.408,13.185-1.809,16.276-5.777,16.159-7.35-.058-1.285-1.691-3.324-8.458-2.861a70.683,70.683,0,0,0-16.392,4.084c.351.175.814.408.814.877,0,.877-1.34,1.225-2.1,1.34a41.321,41.321,0,0,0-8.107,2.22,5.939,5.939,0,0,1-1.809.406c-.992,0-1.458-.581-1.458-1.573a14.554,14.554,0,0,1,2.681-4.9c1.225-1.633,2.919-3.851,4.9-4.61C164.292,2.275,175.2,0,181.27,0c10.033,0,12.423,3.966,12.423,7.117,0,9.45-17.674,11.842-24.5,13.185l-1.167,1.05C172.168,22.109,186.46,23.276,186.46,28.875Zm-24.266-1.052c-.759.817-2.042,2.1-2.042,3.327,0,2.508,4.61,3.207,6.476,3.207,5.191-.058,13.24-3.851,13.24-6.185,0-3.031-12.015-3.908-14.408-3.908Z" transform="translate(227.362)" fill="#e8bc27"/>
    <path id="パス_129" data-name="パス 129" d="M172.3,16.925c-2.039,3.207-4.492,4.725-7,7.235l-.235-2.568a20.446,20.446,0,0,0,3.851-4.256c-1.225-.118-1.576-.584-1.576-1.809,0-4.2,5.95-8.4,7.353-8.4a1.037,1.037,0,0,1,1.05.992,3.971,3.971,0,0,1-.408,1.631c5.481-.759,8.693-1.458,9.274-.759a5.821,5.821,0,0,1,1.4,3.091c0,1.809-1.107,2.683-2.45,3.793-1.694,1.458-4.549,4.316-4.549,6.649a1.789,1.789,0,0,0,1.809,1.633c2.51,0,6.185-3.793,8.109-5.251l.406,2.157c-2.217,2.508-8.926,8.984-12.251,8.984-2.45,0-3.966-2.275-3.966-4.492,0-3.968,3.034-7.057,5.369-9.861l-.118-.115Z" transform="translate(248.458 10.725)" fill="#e8bc27"/>
    <path id="パス_130" data-name="パス 130" d="M185.021,25.267c-1.11.874-4.845,3.908-6.185,3.908-1.633,0-5.015-3.851-5.133-6.882C173.467,15,188.636,7.533,195.4,7.36a3.585,3.585,0,0,1,3.793,2.8c0,.7-1.516,1.285-2.042,1.458a2.338,2.338,0,0,1,1.691,2.392c0,1.866-5.073,5.95-5.073,8.693,0,.992.877,1.4,1.809,1.4,2.453,0,5.777-2.976,8.285-4.667l.468,2.157c-2.508,2.861-10.327,9.1-13.185,9.1-1.927,0-2.8-1.4-2.8-3.091,0-1.866,1.4-4.958,2.157-6.531l-.118-.118Zm-7.06-1.518c.058.291.293,1.34,1.167,1.167,1.167-.235,2.976-.058,14.525-11.727l-.115-.118C179.655,17.333,177.962,20.89,177.962,23.749Z" transform="translate(261.457 11.076)" fill="#e8bc27"/>
    <path id="パス_131" data-name="パス 131" d="M213.557,17.613l.468,2.565c-3.091,2.743-9.1,9.918-13.36,9.918-2.217,0-3.267-1.869-3.267-3.851,0-3.5,3.152-7.35,5.018-10.033l-.118-.118a46.422,46.422,0,0,0-8.984,8.926c-.877,1.107-3.034,3.966-4.61,3.966-2.565,0-3.207-3.675-3.267-5.657-.173-4.026,3.5-9.918,6.884-12.777a2.9,2.9,0,0,1,2.275-.7c3.5.115,3.207.932,3.207,1.283,0,2.275-7.35,8.167-7.35,9.567a.646.646,0,0,0,.641.641c.408,0,.934-.526,1.167-.817,4.665-5.95,15.4-13.125,17.091-13.125.233,0,.584.293.934,1.107a13.594,13.594,0,0,1,.874,3.152c0,2.275-7.172,6.709-7.172,10.732a1.083,1.083,0,0,0,1.05,1.05c1.4,0,3.966-2.039,5.015-2.916Z" transform="translate(279.117 11.145)" fill="#e8bc27"/>
    <path id="パス_132" data-name="パス 132" d="M220.046,19.129c-1.924,3.034-4.725,6.827-4.725,10.559,0,.934.058,2.916,1.343,2.916,1.982,0,7.35-4.725,9.217-5.95l.408,1.927c-2.743,3.034-8.751,9.157-13.007,9.157-2.217,0-3.091-2.332-3.091-4.2a28.345,28.345,0,0,1,.468-4.434c-2.042,1.749-7.466,7.408-10.091,7.408s-4.259-5.6-4.259-7.643c0-6.882,11.609-12.716,16.567-13.007,1.223-.058,1.691.759,2.45,1.633,1.927-3.324,7.057-15.4,11.319-15.4a2.078,2.078,0,0,1,1.866,2.217c0,1.749-1.576,4.141-2.508,5.6ZM201.437,30.094a.977.977,0,0,0,.877,1.107c.7.173,10.091-6.827,11.023-10.269C203.071,24.262,201.788,26.244,201.437,30.094Z" transform="translate(295.489 3.155)" fill="#e8bc27"/>
  </g>
</svg>
