<svg id="logo" xmlns="http://www.w3.org/2000/svg" width="300" height="242.563" viewBox="0 0 300 242.563">
  <g id="グループ_22" data-name="グループ 22" transform="translate(86.998)">
    <path id="パス_91" data-name="パス 91" d="M92.466,103.447l-29-50.223L92.466,3H150.46l29,50.224-29,50.223Z" transform="translate(-58.447 1.35)" fill="#e8bc27"/>
    <path id="パス_92" data-name="パス 92" d="M154.529,109.146H91.512L60.005,54.574,91.512,0h63.017l31.507,54.574Zm-57.994-8.7h52.97l26.487-45.874L149.505,8.7H96.535L70.05,54.574Z" transform="translate(-60.005)" fill="#e8bc27"/>
  </g>
  <path id="パス_93" data-name="パス 93" d="M214.516,143.787H151.5L119.993,89.214,151.5,34.64h63.017l31.507,54.574Zm-57.994-8.7h52.97l26.487-45.874L209.492,43.339h-52.97L130.036,89.214Z" transform="translate(53.978 15.583)" fill="#e8bc27"/>
  <path id="パス_94" data-name="パス 94" d="M94.522,143.823H31.507L0,89.25,31.507,34.676H94.522L126.03,89.25Zm-57.994-8.7H89.5L115.986,89.25,89.5,43.377H36.529L10.045,89.25Z" transform="translate(0 15.599)" fill="#e8bc27"/>
  <g id="グループ_23" data-name="グループ 23" transform="translate(34.013 176.085)">
    <path id="パス_95" data-name="パス 95" d="M23.46,151.255V121.8h5.949v11.594H41.061V121.8H47.01v29.458H41.061V138.373H29.407v12.882Z" transform="translate(-23.46 -121.295)" fill="#040000"/>
    <path id="パス_96" data-name="パス 96" d="M43.112,136.863a18.745,18.745,0,0,1,1.345-7.557A13.842,13.842,0,0,1,47.2,125.27a11.517,11.517,0,0,1,3.807-2.655,16.226,16.226,0,0,1,6.35-1.164,13.832,13.832,0,0,1,10.419,4.038q3.908,4.039,3.909,11.233,0,7.131-3.877,11.162t-10.369,4.026q-6.57,0-10.449-4.007T43.112,136.863Zm6.128-.2q0,5.008,2.311,7.586a7.941,7.941,0,0,0,11.7.022q2.281-2.566,2.281-7.689,0-5.065-2.22-7.555a7.51,7.51,0,0,0-5.9-2.491,7.562,7.562,0,0,0-5.928,2.521Q49.24,131.581,49.24,136.66Z" transform="translate(-14.62 -121.451)" fill="#040000"/>
    <path id="パス_97" data-name="パス 97" d="M66.063,151.255V121.8h5.785L83.9,141.468V121.8h5.527v29.458H83.464L71.588,132.046v19.209Z" transform="translate(-4.295 -121.295)" fill="#040000"/>
    <path id="パス_98" data-name="パス 98" d="M86.519,151.255V121.8h21.842v4.985H92.466v6.53h14.788v4.964H92.466v8.018h16.457v4.963h-22.4Z" transform="translate(4.907 -121.295)" fill="#040000"/>
    <path id="パス_99" data-name="パス 99" d="M114.132,151.255v-12.4L103.344,121.8h6.972l6.932,11.654,6.794-11.654h6.852l-10.832,17.1v12.358h-5.93Z" transform="translate(12.475 -121.296)" fill="#040000"/>
    <path id="パス_100" data-name="パス 100" d="M133.914,151.255V121.8h8.9l5.344,20.095,5.286-20.095h8.921v29.458H156.84V128.068l-5.847,23.187h-5.727l-5.827-23.187v23.187Z" transform="translate(26.227 -121.295)" fill="#040000"/>
    <path id="パス_101" data-name="パス 101" d="M158.057,151.255V121.8H164v29.458Z" transform="translate(37.087 -121.295)" fill="#040000"/>
    <path id="パス_102" data-name="パス 102" d="M164.57,151.255l10.065-15.374L165.512,121.8h6.953l5.907,9.466,5.788-9.466h6.893L181.891,136.1l10.065,15.151h-7.172l-6.53-10.188-6.55,10.188H164.57Z" transform="translate(40.017 -121.296)" fill="#040000"/>
  </g>
  <g id="グループ_24" data-name="グループ 24" transform="translate(76.846 221.076)">
    <path id="パス_103" data-name="パス 103" d="M53,169.088V152.483h2.254L63.98,165.52V152.483h2.107v16.605H63.832L55.11,156.039v13.049Z" transform="translate(-53.003 -152.483)"/>
    <path id="パス_104" data-name="パス 104" d="M72.458,166.269a7.64,7.64,0,0,1-2.181,1.36,6.281,6.281,0,0,1-2.249.4,4.377,4.377,0,0,1-3.048-.969,3.2,3.2,0,0,1-1.064-2.475,3.289,3.289,0,0,1,.4-1.614,3.337,3.337,0,0,1,1.054-1.173,4.983,4.983,0,0,1,1.467-.668,14.315,14.315,0,0,1,1.812-.306,18.765,18.765,0,0,0,3.636-.7c.007-.278.012-.457.012-.532a2.253,2.253,0,0,0-.577-1.756,3.419,3.419,0,0,0-2.323-.692,3.6,3.6,0,0,0-2.124.5,3.077,3.077,0,0,0-1.013,1.783l-1.994-.273a4.954,4.954,0,0,1,.895-2.067,3.912,3.912,0,0,1,1.8-1.212,8.045,8.045,0,0,1,2.73-.425,7.221,7.221,0,0,1,2.5.362,3.3,3.3,0,0,1,1.416.912,3.223,3.223,0,0,1,.635,1.388,11.47,11.47,0,0,1,.1,1.88v2.718a28.773,28.773,0,0,0,.13,3.6A4.572,4.572,0,0,0,75,167.75h-2.13A4.265,4.265,0,0,1,72.458,166.269Zm-.171-4.554a14.931,14.931,0,0,1-3.33.77,7.71,7.71,0,0,0-1.779.407,1.773,1.773,0,0,0-.8.663,1.8,1.8,0,0,0,.335,2.328,2.656,2.656,0,0,0,1.807.544,4.2,4.2,0,0,0,2.1-.515,3.187,3.187,0,0,0,1.348-1.411,4.919,4.919,0,0,0,.329-2.038v-.748Z" transform="translate(-48.093 -151.148)"/>
    <path id="パス_105" data-name="パス 105" d="M78.092,167.149l.294,1.8a7.6,7.6,0,0,1-1.541.181,3.5,3.5,0,0,1-1.722-.351,1.963,1.963,0,0,1-.861-.924,7.278,7.278,0,0,1-.249-2.407v-6.92H72.517v-1.586h1.495v-2.979l2.027-1.224v4.2h2.05v1.586h-2.05v7.035a3.525,3.525,0,0,0,.107,1.121.85.85,0,0,0,.351.4,1.365,1.365,0,0,0,.7.148A6.7,6.7,0,0,0,78.092,167.149Z" transform="translate(-44.225 -152.367)"/>
    <path id="パス_106" data-name="パス 106" d="M85.635,167.669V165.9a4.4,4.4,0,0,1-3.817,2.038,4.88,4.88,0,0,1-1.988-.407,3.262,3.262,0,0,1-1.37-1.025A3.835,3.835,0,0,1,77.831,165a10.269,10.269,0,0,1-.125-1.9v-7.454h2.038v6.672a11.784,11.784,0,0,0,.125,2.152,2.126,2.126,0,0,0,.816,1.263,2.529,2.529,0,0,0,1.541.458,3.364,3.364,0,0,0,1.722-.47,2.6,2.6,0,0,0,1.138-1.28,6.444,6.444,0,0,0,.333-2.35v-6.445h2.038v12.029H85.635Z" transform="translate(-41.891 -151.064)"/>
    <path id="パス_107" data-name="パス 107" d="M86.62,167.752V155.723h1.835v1.824a4.952,4.952,0,0,1,1.3-1.688,2.27,2.27,0,0,1,1.308-.407,3.974,3.974,0,0,1,2.1.657l-.7,1.892a2.922,2.922,0,0,0-1.495-.442,1.947,1.947,0,0,0-1.2.4A2.165,2.165,0,0,0,89,159.077a7.956,7.956,0,0,0-.339,2.379v6.3H86.62Z" transform="translate(-37.881 -151.147)"/>
    <path id="パス_108" data-name="パス 108" d="M100.028,166.269a7.64,7.64,0,0,1-2.181,1.36,6.281,6.281,0,0,1-2.249.4,4.379,4.379,0,0,1-3.048-.969,3.2,3.2,0,0,1-1.064-2.475,3.352,3.352,0,0,1,1.456-2.787,4.963,4.963,0,0,1,1.467-.668,14.315,14.315,0,0,1,1.812-.306,18.742,18.742,0,0,0,3.636-.7c.007-.278.012-.457.012-.532a2.253,2.253,0,0,0-.577-1.756,3.419,3.419,0,0,0-2.323-.692,3.6,3.6,0,0,0-2.124.5,3.074,3.074,0,0,0-1.013,1.783l-1.994-.273a4.954,4.954,0,0,1,.895-2.067,3.9,3.9,0,0,1,1.8-1.212,8.045,8.045,0,0,1,2.73-.425,7.221,7.221,0,0,1,2.5.362,3.3,3.3,0,0,1,1.416.912,3.223,3.223,0,0,1,.635,1.388,11.469,11.469,0,0,1,.1,1.88v2.718a28.774,28.774,0,0,0,.13,3.6,4.572,4.572,0,0,0,.515,1.444h-2.13A4.3,4.3,0,0,1,100.028,166.269Zm-.17-4.554a14.931,14.931,0,0,1-3.33.77,7.711,7.711,0,0,0-1.779.407,1.772,1.772,0,0,0-.8.663,1.8,1.8,0,0,0,.335,2.328,2.656,2.656,0,0,0,1.807.544,4.2,4.2,0,0,0,2.1-.515,3.187,3.187,0,0,0,1.348-1.411,4.919,4.919,0,0,0,.329-2.038v-.748Z" transform="translate(-35.691 -151.148)"/>
    <path id="パス_109" data-name="パス 109" d="M100.831,169.088V152.483h2.038v16.605Z" transform="translate(-31.488 -152.483)"/>
    <path id="パス_110" data-name="パス 110" d="M109.089,169.088V152.483h2.2V159.3h8.631v-6.819h2.2v16.605h-2.2v-7.826h-8.631v7.826Z" transform="translate(-27.773 -152.483)"/>
    <path id="パス_111" data-name="パス 111" d="M119.894,161.738a6.2,6.2,0,0,1,1.857-4.95,5.6,5.6,0,0,1,3.783-1.337,5.4,5.4,0,0,1,4.055,1.625,6.183,6.183,0,0,1,1.575,4.492,7.975,7.975,0,0,1-.7,3.654,4.923,4.923,0,0,1-2.027,2.067,5.9,5.9,0,0,1-2.905.737,5.4,5.4,0,0,1-4.083-1.619A6.483,6.483,0,0,1,119.894,161.738Zm2.1,0A5.121,5.121,0,0,0,123,165.2a3.356,3.356,0,0,0,5.063-.006,5.241,5.241,0,0,0,1.008-3.523,4.969,4.969,0,0,0-1.013-3.381,3.361,3.361,0,0,0-5.057-.006A5.1,5.1,0,0,0,121.989,161.738Z" transform="translate(-22.913 -151.148)"/>
    <path id="パス_112" data-name="パス 112" d="M129.315,167.752V155.723h1.836v1.711a4.324,4.324,0,0,1,3.829-1.982,5.014,5.014,0,0,1,2,.391,3.142,3.142,0,0,1,1.364,1.025,3.962,3.962,0,0,1,.635,1.506,11.694,11.694,0,0,1,.113,1.982v7.4h-2.038v-7.317a5.505,5.505,0,0,0-.238-1.863,1.96,1.96,0,0,0-.844-.986,2.683,2.683,0,0,0-1.421-.368,3.305,3.305,0,0,0-2.249.826q-.946.826-.945,3.137v6.569h-2.041Z" transform="translate(-18.675 -151.147)"/>
    <path id="パス_113" data-name="パス 113" d="M146.66,163.878l2.107.261a5.14,5.14,0,0,1-1.846,2.866,6.256,6.256,0,0,1-7.629-.606,6.351,6.351,0,0,1-1.546-4.56,6.645,6.645,0,0,1,1.563-4.712,5.291,5.291,0,0,1,4.055-1.676,5.145,5.145,0,0,1,3.942,1.643,6.525,6.525,0,0,1,1.53,4.622c0,.12,0,.3-.012.544h-8.972a4.63,4.63,0,0,0,1.121,3.036,3.334,3.334,0,0,0,2.514,1.054,3.123,3.123,0,0,0,1.914-.589A3.931,3.931,0,0,0,146.66,163.878Zm-6.7-3.3h6.717a4.071,4.071,0,0,0-.77-2.276,3.123,3.123,0,0,0-2.526-1.179,3.242,3.242,0,0,0-2.362.939A3.72,3.72,0,0,0,139.964,160.582Z" transform="translate(-14.882 -151.147)"/>
    <path id="パス_114" data-name="パス 114" d="M147.38,172.3l-.226-1.914a4.566,4.566,0,0,0,1.167.181,2.238,2.238,0,0,0,1.087-.226,1.854,1.854,0,0,0,.668-.635,10.069,10.069,0,0,0,.623-1.518c.038-.113.1-.278.181-.5l-4.564-12.053h2.2l2.5,6.966q.487,1.324.873,2.787a27.282,27.282,0,0,1,.838-2.742l2.571-7.011h2.038l-4.576,12.234a24.385,24.385,0,0,1-1.144,2.73,4.02,4.02,0,0,1-1.245,1.479,2.943,2.943,0,0,1-1.676.47A4.111,4.111,0,0,1,147.38,172.3Z" transform="translate(-11.026 -151.064)"/>
  </g>
</svg>
